<?xml version="1.0" standalone="no"?>
<!DOCTYPE svg PUBLIC "-//W3C//DTD SVG 20010904//EN"
 "http://www.w3.org/TR/2001/REC-SVG-20010904/DTD/svg10.dtd">
<svg version="1.0" xmlns="http://www.w3.org/2000/svg"
 width="241.000000pt" height="241.000000pt" viewBox="0 0 241.000000 241.000000"
 preserveAspectRatio="xMidYMid meet">
<metadata>
Created by potrace 1.14, written by Peter Selinger 2001-2017
</metadata>
<g transform="translate(0.000000,241.000000) scale(0.100000,-0.100000)"
fill="#000000" stroke="none">
<path d="M328 1368 c-2 -189 -6 -232 -16 -230 -77 16 -133 4 -210 -46 -76 -49
-104 -95 -100 -162 2 -43 8 -57 28 -71 67 -50 202 -16 287 73 55 56 61 84 59
273 -3 192 -1 205 25 205 17 0 19 -9 19 -94 0 -69 4 -97 14 -105 12 -10 17 -8
25 7 5 10 8 27 7 38 -4 20 10 44 25 44 5 0 14 -11 19 -25 12 -32 40 -23 41 14
1 14 2 31 4 36 1 6 3 18 3 28 2 22 36 19 38 -3 1 -8 2 -21 3 -27 0 -7 10 -13
21 -13 15 0 20 7 21 28 5 115 -8 143 -45 97 -22 -27 -24 -28 -33 -9 -6 10 -11
32 -11 47 1 33 -6 41 -27 34 -12 -5 -15 -23 -15 -81 0 -74 -8 -94 -33 -79 -9
6 -12 37 -12 108 0 93 -1 100 -20 100 -16 0 -21 -8 -23 -40 -4 -46 -20 -71
-35 -56 -6 6 -11 39 -11 73 -1 57 -3 63 -23 66 l-23 3 -2 -233z m-40 -265 c6
-21 -48 -36 -78 -23 -24 12 -24 12 -5 26 23 17 77 15 83 -3z"/>
<path d="M687 1395 c-9 -22 3 -46 22 -43 10 2 16 13 16 28 0 28 -29 40 -38 15z"/>
<path d="M409 1151 c-6 -152 -3 -210 11 -214 29 -7 40 5 40 44 0 32 3 39 19
39 17 0 19 -6 17 -34 -4 -37 3 -52 22 -50 6 1 17 2 22 3 7 1 10 40 8 113 -3
107 -4 111 -25 113 -24 2 -27 -3 -25 -42 1 -13 -7 -27 -18 -33 -18 -10 -20 -7
-20 28 0 34 -3 40 -25 44 -18 4 -25 1 -26 -11z"/>
<path d="M614 1160 c-32 -13 -36 -24 -38 -108 -2 -86 11 -111 59 -116 33 -4
74 11 77 28 4 28 4 162 1 173 -3 6 -18 16 -35 22 -36 13 -36 13 -64 1z m52
-95 c1 -45 -12 -79 -27 -70 -5 4 -9 31 -9 61 0 47 3 55 18 52 13 -2 17 -13 18
-43z"/>
<path d="M739 1158 c-2 -10 -2 -35 0 -48 0 -5 9 -10 19 -10 16 0 18 -9 18 -79
-1 -63 2 -81 14 -84 34 -9 40 4 40 84 0 72 2 79 20 79 16 0 20 7 20 33 l0 32
-65 0 c-36 0 -66 -3 -66 -7z"/>
<path d="M894 1161 c-2 -2 -4 -53 -4 -113 0 -79 3 -108 13 -109 74 -5 107 -5
108 2 6 42 2 54 -16 55 -46 2 -55 4 -55 13 0 5 12 11 28 13 26 3 28 8 23 48 0
6 -13 10 -27 10 -39 0 -24 24 16 24 28 1 33 5 36 29 1 15 -2 27 -9 28 -39 4
-109 3 -113 0z"/>
<path d="M1044 1156 c-3 -7 -3 -59 -2 -116 l3 -103 63 -2 62 -2 0 63 c0 61 -1
64 -24 64 -21 0 -25 -6 -28 -32 -5 -57 -23 -26 -25 42 0 36 -2 70 -2 76 -1 17
-41 25 -47 10z"/>
<path d="M1331 1161 c-6 -4 -10 -35 -10 -72 1 -88 1 -89 -16 -89 -10 0 -15 10
-15 30 0 26 -4 30 -26 30 -26 0 -26 -1 -22 -51 3 -27 10 -55 15 -60 18 -18 72
-18 95 1 20 16 22 27 23 113 1 82 -1 96 -16 100 -9 3 -22 1 -28 -2z"/>
<path d="M1442 1163 c-12 -2 -26 -12 -31 -21 -11 -22 -14 -163 -4 -178 15 -21
50 -33 79 -28 49 9 57 25 57 114 0 88 -8 105 -53 113 -14 3 -35 3 -48 0z m48
-107 c0 -30 -4 -57 -8 -60 -17 -10 -28 11 -26 49 2 62 3 65 19 65 11 0 15 -13
15 -54z"/>
<path d="M1573 1161 c-16 -11 -7 -94 15 -138 12 -23 22 -51 22 -61 0 -11 9
-22 19 -25 24 -6 31 0 31 25 0 10 9 37 21 60 12 23 22 63 24 90 3 47 2 48 -25
48 -24 0 -27 -4 -25 -28 1 -15 -2 -39 -7 -52 -9 -24 -10 -24 -20 -6 -6 11 -11
35 -12 54 -1 35 -20 49 -43 33z"/>
<path d="M1740 1160 c-7 -4 -10 -46 -8 -115 l3 -108 63 -2 62 -1 1 33 c3 92 2
95 -23 91 -17 -2 -24 -11 -26 -30 -2 -16 -9 -28 -17 -28 -10 0 -13 18 -13 68
0 37 0 74 -1 83 -1 16 -22 21 -41 9z"/>
<path d="M1902 1160 c-22 -6 -23 -41 -1 -63 10 -9 15 -30 13 -53 -3 -54 -3
-54 -15 -51 -6 1 -13 -10 -16 -25 -2 -18 1 -28 9 -29 16 -1 90 -1 101 0 5 1 7
13 5 29 -2 15 -8 26 -15 24 -14 -2 -15 3 -15 61 0 24 7 43 17 51 10 7 15 22
13 36 -2 19 -9 23 -40 24 -20 1 -46 -1 -56 -4z"/>
<path d="M2031 1160 c-4 -3 -8 -51 -8 -108 0 -86 2 -104 16 -112 25 -13 41 2
38 35 -1 23 3 30 18 33 11 3 23 9 26 14 11 17 -3 48 -21 48 -10 0 -20 7 -24
15 -5 15 8 19 45 16 18 -2 29 26 20 49 -6 15 -91 23 -110 10z"/>
<path d="M2171 1160 c-4 -3 -7 -53 -7 -112 0 -120 -8 -109 79 -112 40 -1 42 1
42 29 0 27 -3 30 -32 29 -38 0 -46 23 -10 28 16 2 23 11 25 31 3 23 0 27 -22
27 -15 0 -26 6 -26 13 0 9 12 14 33 13 28 -1 32 3 35 27 2 17 -2 27 -10 28
-52 4 -101 3 -107 -1z"/>
</g>
</svg>
